# Blender v2.80 (sub 75) OBJ File: ''
# www.blender.org
mtllib reflect_test.mtl
o Cube.001
v -1.015679 -2.361311 -6.760695
v -1.015679 2.361311 -6.760695
v -1.359649 -2.705281 -7.144196
v -1.359649 2.705281 -7.144196
v 3.706944 -2.361311 -6.760695
v 3.706944 2.361311 -6.760695
v 4.050913 -2.705281 -7.144196
v 4.050913 2.705281 -7.144196
v -1.359649 -2.705281 -6.581757
v -1.359649 2.705281 -6.581757
v 4.050913 2.705281 -6.581757
v 4.050913 -2.705281 -6.581757
v -1.000000 -1.000000 1.000000
v -1.000000 1.000000 1.000000
v -1.000000 -1.000000 -1.000000
v -1.000000 1.000000 -1.000000
v 1.000000 -1.000000 1.000000
v 1.000000 1.000000 1.000000
v 1.000000 -1.000000 -1.000000
v 1.000000 1.000000 -1.000000
vt 0.625000 0.000000
vt 0.375000 0.250000
vt 0.375000 0.000000
vt 0.625000 0.250000
vt 0.375000 0.500000
vt 0.625000 0.500000
vt 0.375000 0.750000
vt 0.609107 0.765893
vt 0.390893 0.984107
vt 0.390893 0.765893
vt 0.125000 0.750000
vt 0.125000 0.500000
vt 0.875000 0.500000
vt 0.625000 0.750000
vt 0.609107 0.984107
vt 0.375000 1.000000
vt 0.625000 1.000000
vt 0.625000 0.000000
vt 0.375000 0.250000
vt 0.375000 0.000000
vt 0.625000 0.250000
vt 0.375000 0.500000
vt 0.625000 0.500000
vt 0.375000 0.750000
vt 0.625000 0.750000
vt 0.375000 1.000000
vt 0.125000 0.750000
vt 0.125000 0.500000
vt 0.875000 0.500000
vt 0.875000 0.750000
vt 0.625000 1.000000
vt 0.875000 0.750000
vn -1.0000 0.0000 0.0000
vn 0.0000 0.0000 -1.0000
vn 1.0000 0.0000 0.0000
vn 0.0000 0.0000 1.0000
vn 0.0000 -1.0000 0.0000
vn 0.0000 1.0000 0.0000
vn 0.4615 0.0000 0.8871
vn -0.4615 0.0000 0.8871
vn 0.0000 0.4615 0.8871
vn 0.0000 -0.4615 0.8871
usemtl Material.002
s off
f 10/1/1 3/2/1 9/3/1
f 4/4/2 7/5/2 3/2/2
f 8/6/3 12/7/3 7/5/3
f 6/8/4 1/9/4 5/10/4
f 7/5/5 9/11/5 3/12/5
f 4/13/6 11/14/6 8/6/6
f 2/15/7 9/16/7 1/9/7
f 5/10/8 11/14/8 6/8/8
f 1/9/9 12/7/9 5/10/9
f 6/8/10 10/17/10 2/15/10
f 14/18/1 15/19/1 13/20/1
f 16/21/2 19/22/2 15/19/2
f 20/23/3 17/24/3 19/22/3
f 18/25/4 13/26/4 17/24/4
f 19/22/5 13/27/5 15/28/5
f 16/29/6 18/25/6 20/23/6
f 10/1/1 4/4/1 3/2/1
f 4/4/2 8/6/2 7/5/2
f 8/6/3 11/14/3 12/7/3
f 6/8/4 2/15/4 1/9/4
f 7/5/5 12/7/5 9/11/5
f 4/13/6 10/30/6 11/14/6
f 2/15/7 10/17/7 9/16/7
f 5/10/8 12/7/8 11/14/8
f 1/9/9 9/16/9 12/7/9
f 6/8/10 11/14/10 10/17/10
f 14/18/1 16/21/1 15/19/1
f 16/21/2 20/23/2 19/22/2
f 20/23/3 18/25/3 17/24/3
f 18/25/4 14/31/4 13/26/4
f 19/22/5 17/24/5 13/27/5
f 16/29/6 14/32/6 18/25/6
o Cube.002
v -0.923234 -2.257874 -6.680943
v -0.923234 2.257874 -6.680943
v -0.923234 -2.257874 -6.891560
v -0.923234 2.257874 -6.891560
v 3.592514 -2.257874 -6.680943
v 3.592514 2.257874 -6.680943
v 3.592514 -2.257874 -6.891560
v 3.592514 2.257874 -6.891560
vt 0.625000 0.000000
vt 0.375000 0.250000
vt 0.375000 0.000000
vt 0.625000 0.250000
vt 0.375000 0.500000
vt 0.625000 0.500000
vt 0.375000 0.750000
vt 0.625000 0.750000
vt 0.375000 1.000000
vt 0.125000 0.750000
vt 0.125000 0.500000
vt 0.875000 0.500000
vt 0.625000 1.000000
vt 0.875000 0.750000
vn -1.0000 0.0000 0.0000
vn 0.0000 0.0000 -1.0000
vn 1.0000 0.0000 0.0000
vn 0.0000 0.0000 1.0000
vn 0.0000 -1.0000 0.0000
vn 0.0000 1.0000 0.0000
usemtl Material.001
s off
f 22/33/11 23/34/11 21/35/11
f 24/36/12 27/37/12 23/34/12
f 28/38/13 25/39/13 27/37/13
f 26/40/14 21/41/14 25/39/14
f 27/37/15 21/42/15 23/43/15
f 24/44/16 26/40/16 28/38/16
f 22/33/11 24/36/11 23/34/11
f 24/36/12 28/38/12 27/37/12
f 28/38/13 26/40/13 25/39/13
f 26/40/14 22/45/14 21/41/14
f 27/37/15 25/39/15 21/42/15
f 24/44/16 22/46/16 26/40/16
